<?xml version="1.0" standalone="no"?>
<!DOCTYPE svg PUBLIC "-//W3C//DTD SVG 20010904//EN"
 "http://www.w3.org/TR/2001/REC-SVG-20010904/DTD/svg10.dtd">
<svg version="1.0" xmlns="http://www.w3.org/2000/svg"
 width="1400.000000pt" height="1400.000000pt" viewBox="0 0 1400.000000 1400.000000"
 preserveAspectRatio="xMidYMid meet">
<metadata>
Created by potrace 1.16, written by Peter Selinger 2001-2019
</metadata>
<g transform="translate(0.000000,1400.000000) scale(0.100000,-0.100000)"
fill="#000000" stroke="none">
<path d="M0 9111 c0 -3310 3 -4892 10 -4896 11 -7 108 -206 141 -288 10 -26
30 -70 44 -97 26 -51 33 -104 15 -115 -17 -10 -11 -33 10 -40 11 -3 20 -15 20
-25 0 -10 4 -21 9 -24 4 -3 11 -26 13 -50 3 -24 16 -62 29 -82 21 -34 40 -96
22 -68 -5 6 -21 14 -36 18 -24 6 -35 1 -66 -27 -41 -37 -41 -47 -1 -92 25 -27
60 -93 60 -110 0 -18 -20 -31 -29 -18 -3 6 -51 41 -106 78 -55 38 -106 74
-113 82 -7 7 -15 13 -18 13 -2 0 -4 -64 -4 -142 0 -83 4 -137 9 -130 5 8 39
23 77 33 68 19 69 19 96 -1 15 -11 38 -20 51 -20 14 0 37 -13 55 -31 30 -31
86 -163 97 -231 3 -21 9 -40 14 -42 5 -3 4 15 0 40 -5 26 -7 50 -4 54 3 5 1
11 -4 15 -6 3 -8 12 -4 20 3 8 0 15 -6 15 -8 0 -8 4 1 14 17 19 26 12 21 -16
-4 -19 2 -26 28 -35 18 -7 30 -15 26 -19 -3 -3 10 -21 29 -40 20 -18 33 -38
29 -44 -3 -5 1 -10 9 -10 9 0 16 -8 16 -18 0 -10 5 -23 11 -29 12 -12 16 -169
5 -180 -11 -12 -41 13 -44 36 -4 25 -37 26 -37 1 0 -8 -9 -28 -19 -44 -21 -30
-25 -84 -8 -120 92 -201 162 -370 183 -446 8 -25 22 -52 33 -61 19 -15 22 -15
43 0 19 13 22 25 21 66 0 30 6 64 16 82 9 18 16 41 16 53 0 11 5 20 10 20 12
0 12 -11 -1 -115 -5 -44 -12 -102 -14 -129 -3 -28 -10 -53 -17 -57 -7 -5 -12
-26 -11 -49 2 -45 39 -113 103 -190 21 -25 59 -76 85 -115 47 -69 142 -174
158 -175 5 0 37 -24 72 -52 102 -84 122 -98 138 -98 19 0 145 -65 172 -89 11
-10 54 -32 96 -49 72 -29 78 -30 120 -17 24 8 116 37 204 65 88 28 170 50 181
50 29 0 39 -15 59 -85 10 -33 23 -71 31 -85 7 -14 20 -42 29 -62 9 -20 39 -60
66 -88 27 -28 49 -57 49 -63 0 -7 7 -21 15 -31 8 -11 15 -27 15 -37 0 -9 6
-22 14 -29 23 -18 0 -58 -38 -65 -31 -6 -41 -10 -109 -40 -21 -9 -49 -15 -62
-13 -14 2 -30 -4 -37 -14 -7 -9 -31 -18 -53 -21 -22 -2 -47 -6 -55 -8 -8 -2
-14 2 -13 9 2 6 -3 12 -11 12 -7 0 -22 12 -32 28 -18 27 -21 35 -29 82 -5 32
-52 139 -68 154 -11 10 -38 13 -74 8 -7 -1 -50 -39 -97 -85 -72 -70 -92 -84
-136 -94 -28 -7 -62 -18 -77 -25 -30 -15 -61 -62 -62 -95 -1 -12 -6 -25 -11
-28 -6 -4 -8 -15 -5 -26 4 -13 2 -19 -6 -17 -14 3 -59 -72 -52 -85 3 -5 -3
-17 -12 -27 -9 -10 -14 -24 -10 -29 3 -6 -1 -11 -9 -11 -18 0 -21 -16 -5 -26
7 -4 -8 -19 -36 -37 -33 -22 -43 -32 -33 -39 10 -7 9 -11 -5 -22 -10 -8 -15
-20 -11 -29 3 -10 -2 -20 -16 -27 -15 -8 -19 -17 -15 -31 5 -15 1 -22 -14 -26
-25 -6 -27 -18 -5 -27 9 -3 131 -6 271 -6 l256 0 29 30 c15 16 30 30 33 30 3
0 25 16 51 35 25 19 50 33 55 29 5 -3 9 2 9 10 0 9 7 16 15 16 8 0 15 5 15 10
0 6 7 10 15 10 8 0 15 4 15 10 0 5 3 9 8 8 13 -2 107 45 115 58 4 8 19 14 33
14 14 0 23 4 20 9 -3 5 21 19 54 31 33 12 60 26 60 30 0 4 15 14 33 21 17 7
38 21 45 31 7 10 21 18 31 18 9 0 27 11 39 25 57 65 91 -3 93 -187 1 -87 -2
-113 -15 -127 -9 -10 -16 -23 -16 -29 0 -7 -6 -12 -14 -12 -8 0 -16 -6 -19
-14 -3 -7 -39 -21 -81 -31 -42 -10 -76 -20 -76 -21 0 -2 410 -4 912 -4 l911 0
-24 26 c-24 26 -24 26 -1 15 18 -10 22 -9 22 3 0 32 -21 66 -50 81 -17 9 -40
25 -51 36 -10 10 -28 19 -39 19 -11 0 -20 6 -20 14 0 25 -122 67 -135 47 -6
-11 18 -21 48 -21 39 0 72 -24 77 -55 3 -18 15 -34 28 -41 31 -16 50 -34 35
-34 -7 0 -14 4 -17 9 -3 5 -15 7 -25 4 -12 -3 -23 2 -30 15 -9 16 -28 24 -79
33 -4 0 -15 5 -24 10 -12 6 -25 6 -39 -1 -15 -8 -24 -8 -33 -1 -8 6 -22 8 -31
4 -14 -5 -17 -3 -12 10 3 9 2 17 -3 17 -6 0 -10 -5 -10 -11 0 -6 -6 -9 -12 -6
-20 7 -53 -8 -53 -24 0 -8 -7 -14 -15 -14 -8 0 -21 -8 -28 -17 -7 -10 -28 -20
-47 -24 -19 -3 -33 -9 -31 -13 3 -4 -18 -8 -45 -9 -27 -1 -49 2 -49 8 0 5 -7
10 -15 10 -8 0 -12 -6 -9 -14 4 -10 -8 -12 -57 -9 -34 2 -83 9 -108 15 -25 6
-63 11 -83 11 -21 1 -38 4 -38 7 0 3 -28 5 -62 4 -41 -2 -69 3 -85 13 -18 12
-26 13 -37 4 -12 -10 -17 -8 -26 8 -8 16 -17 20 -38 15 -26 -5 -27 -5 -7 12
20 16 19 16 -7 10 -17 -4 -28 -2 -28 4 0 5 -6 10 -13 10 -19 0 -41 49 -24 55
6 2 35 11 64 20 29 9 74 18 100 20 26 3 67 7 91 10 23 4 72 8 110 10 105 6
275 17 297 20 11 1 48 6 83 10 35 4 62 12 62 19 0 16 -39 38 -52 30 -6 -4 -17
1 -25 11 -10 15 -16 16 -25 7 -7 -7 -21 -12 -32 -12 -16 0 -18 2 -7 9 8 5 9
11 3 15 -6 3 -13 2 -17 -3 -4 -7 -15 -7 -32 0 -17 6 -28 6 -32 0 -4 -6 -15 3
-26 19 -11 16 -29 31 -40 33 -15 3 -13 5 7 6 15 0 33 8 42 16 8 8 21 12 29 9
8 -3 18 -1 22 5 3 6 22 11 41 11 23 0 34 5 34 15 0 17 -50 45 -80 45 -11 0
-20 6 -20 14 0 8 -18 30 -40 49 -22 19 -40 41 -40 50 0 10 -7 17 -15 17 -8 0
-15 -9 -15 -21 0 -31 -17 -14 -23 23 -6 46 2 64 18 41 12 -16 14 -16 26 10 7
15 16 27 20 27 13 0 54 69 69 115 18 53 92 141 101 118 4 -13 20 -3 80 48 41
36 82 80 91 99 23 45 24 164 3 207 -15 30 -88 103 -135 135 -19 13 -21 17 -8
17 21 1 103 -64 156 -124 31 -36 39 -51 31 -61 -16 -19 -7 -109 11 -109 12 0
14 11 12 55 l-3 54 33 -43 c18 -24 38 -51 43 -60 6 -9 12 -18 15 -21 42 -40
329 -440 315 -440 -4 0 -190 248 -278 372 -26 38 -50 68 -52 68 -6 0 -93 -66
-115 -86 -104 -97 -191 -184 -205 -206 -11 -18 -19 -57 -22 -110 -4 -71 -2
-90 16 -128 32 -66 51 -97 51 -81 0 9 6 11 18 6 9 -4 31 -8 47 -9 38 -1 49
-20 14 -24 -18 -2 -29 -11 -32 -24 -9 -32 1 -40 47 -37 68 3 160 -12 173 -30
18 -25 -14 -71 -50 -71 -18 0 -26 -4 -21 -11 4 -8 -1 -9 -17 -4 l-24 7 24 -26
c14 -14 35 -26 47 -26 64 0 211 -80 290 -157 22 -22 45 -42 51 -44 6 -2 25
-34 41 -72 l31 -67 259 0 259 0 11 33 11 32 -5 -33 -6 -32 505 0 c398 0 505 3
504 13 -1 6 2 38 7 71 7 55 6 63 -27 130 -20 39 -38 81 -42 93 -3 11 -17 28
-30 37 -16 10 -25 26 -25 41 0 24 -3 25 -60 25 -33 0 -60 3 -60 8 0 4 -11 14
-24 22 -35 22 -117 122 -114 139 4 22 36 22 43 0 4 -10 16 -24 27 -30 17 -9
18 -13 7 -20 -11 -7 -10 -12 7 -30 20 -20 28 -21 102 -14 l80 7 8 36 c4 21 9
46 10 56 1 11 9 25 19 32 13 10 16 21 11 46 -3 18 -8 47 -11 63 l-5 30 14 -30
c8 -16 18 -39 22 -50 6 -18 8 -18 11 -2 3 9 9 17 14 17 5 0 9 8 9 18 0 9 9 23
20 30 40 25 20 132 -34 182 -23 20 -37 25 -85 25 -51 0 -60 3 -75 25 -38 59
-68 95 -79 95 -24 0 -12 82 19 127 56 82 146 188 155 182 5 -3 5 -12 0 -22
-15 -29 -32 -152 -31 -221 0 -36 -2 -80 -6 -97 -6 -31 -4 -32 43 -48 67 -22
120 -68 133 -116 6 -21 18 -48 29 -61 17 -22 17 -23 -6 -65 -13 -24 -38 -57
-54 -75 -35 -38 -36 -51 -5 -92 13 -18 26 -45 28 -62 3 -28 6 -30 53 -33 65
-4 131 17 129 41 -1 9 2 17 7 17 5 0 9 -5 9 -11 0 -6 11 -8 28 -4 20 4 33 1
41 -9 11 -13 9 -17 -12 -25 -14 -5 -42 -13 -63 -16 -48 -8 -105 -26 -121 -38
-7 -5 -16 -6 -21 -3 -15 9 -34 -21 -27 -44 3 -11 13 -20 21 -20 8 0 14 -4 14
-10 0 -5 -6 -9 -12 -7 -7 1 -13 -2 -12 -8 1 -22 16 -91 24 -111 5 -13 5 -25
-1 -31 -6 -6 1 -20 19 -38 30 -29 30 -40 6 -138 l-6 -27 1928 0 1929 1 24 37
c23 37 86 189 101 247 32 117 43 151 66 196 14 28 23 53 21 56 -3 2 -16 -20
-30 -49 -65 -136 -87 -187 -87 -196 0 -25 -30 -19 -44 10 -11 21 -12 27 -2 19
16 -13 23 -6 43 39 25 58 31 87 22 101 -5 8 -2 20 8 31 9 10 13 18 9 18 -11 0
-40 -31 -42 -44 -3 -35 -6 -43 -19 -60 -7 -10 -19 -15 -25 -11 -7 4 -7 11 -2
18 5 7 17 35 27 62 10 28 22 55 27 61 12 16 14 80 4 138 -8 42 -7 48 7 43 10
-4 17 1 20 14 6 21 -24 111 -45 136 -7 9 -13 33 -14 54 0 42 -26 79 -56 79
-10 0 -18 -7 -18 -15 0 -8 -2 -15 -3 -15 -10 0 -74 35 -89 48 -24 20 -23 9 5
-36 32 -53 58 -112 49 -112 -12 0 -93 149 -87 159 2 5 -3 15 -12 22 -12 11
-64 14 -227 14 -183 0 -214 2 -235 17 -19 14 -28 15 -45 6 -12 -7 -41 -15 -66
-19 -25 -4 -76 -17 -115 -30 -48 -16 -95 -23 -150 -23 l-79 -1 -58 85 c-38 57
-67 89 -88 98 -29 12 -30 13 -30 82 0 39 4 70 9 70 11 0 21 -35 21 -76 0 -21
10 -40 36 -65 20 -18 43 -47 51 -64 9 -16 32 -49 52 -73 36 -43 36 -43 91 -39
51 5 276 70 292 86 4 4 -24 39 -62 79 -58 59 -69 76 -65 95 4 15 1 28 -9 36
-9 8 -16 18 -16 23 0 6 7 5 15 -2 9 -7 17 -11 19 -9 1 2 8 38 15 79 6 41 20
86 30 100 37 51 52 89 42 107 -5 10 -14 37 -20 61 -7 24 -18 42 -26 42 -11 0
-13 8 -9 28 12 57 -140 289 -175 268 -15 -10 -31 -74 -31 -127 0 -47 -30 -108
-59 -117 -9 -3 -6 7 9 28 18 26 24 49 26 99 2 36 4 77 6 91 3 23 0 25 -46 26
-84 3 -126 51 -152 175 -27 129 -27 149 5 194 16 22 32 51 36 65 4 14 22 43
39 65 69 86 86 117 74 138 -6 11 -8 40 -4 66 6 46 6 46 -32 61 -34 15 -40 14
-77 -3 -22 -11 -44 -26 -48 -33 -4 -8 -15 -14 -22 -14 -8 0 -15 -7 -15 -15 0
-8 7 -15 15 -15 27 0 15 -18 -15 -22 -17 -3 -30 0 -30 6 0 6 -5 4 -10 -4 -6
-9 -10 -10 -10 -3 0 7 -16 23 -36 37 -43 29 -129 133 -137 167 -3 13 0 46 7
73 18 68 8 108 -29 121 -31 10 -74 52 -75 71 0 26 -34 75 -59 89 -44 22 -55
43 -62 118 -6 62 -4 75 14 98 12 17 18 36 14 48 -3 12 1 43 8 70 9 34 10 52 2
60 -7 7 -3 8 12 4 16 -4 21 -1 21 13 0 11 -4 26 -10 34 -5 9 -5 19 2 27 7 9 7
27 0 60 -24 111 -24 129 3 141 14 6 25 16 25 21 0 20 70 53 100 47 16 -3 32
-1 35 4 6 9 25 7 75 -6 9 -2 24 -20 34 -39 14 -26 24 -34 38 -29 13 4 18 0 18
-13 0 -10 7 -27 15 -37 11 -15 17 -17 29 -7 12 10 16 8 21 -8 3 -12 4 -25 1
-30 -8 -13 -15 -192 -7 -189 64 30 105 86 125 172 4 15 21 47 39 70 17 22 33
43 34 45 1 2 9 -2 17 -8 12 -11 16 -6 21 26 3 21 8 49 11 61 3 13 1 21 -4 18
-6 -3 -15 1 -22 9 -7 8 -18 15 -26 15 -7 0 -17 6 -21 14 -4 7 -18 18 -29 24
-26 14 -40 73 -24 103 10 17 8 25 -9 43 -12 12 -21 27 -21 32 0 5 -11 25 -24
45 -53 78 -68 113 -71 170 -1 35 -8 64 -17 73 -12 11 -14 25 -8 58 5 25 4 50
-1 61 -6 10 -8 25 -5 35 3 9 -1 35 -8 56 -12 35 -15 37 -25 20 -10 -18 -11
-17 -8 4 2 13 24 54 50 92 50 74 53 80 37 80 -5 0 -10 -6 -10 -14 0 -16 -38
-66 -50 -66 -6 0 -6 10 -1 23 5 12 7 37 5 55 -2 18 1 32 7 32 14 0 39 26 32
34 -3 3 -12 1 -19 -5 -17 -14 -119 -6 -139 11 -8 7 -15 19 -15 27 0 13 3 13
15 3 22 -18 32 -3 13 17 -22 21 -52 10 -43 -16 7 -23 -10 -37 -22 -19 -5 8
-10 -3 -13 -31 -7 -61 -30 -67 -30 -8 0 42 -2 45 -32 52 -55 11 -118 14 -118
4 0 -5 -4 -9 -10 -9 -5 0 -10 9 -10 19 0 22 -37 38 -52 23 -6 -6 -7 -22 -3
-39 10 -34 12 -43 13 -67 2 -18 3 -18 20 -3 20 18 62 23 62 8 0 -5 -14 -14
-31 -21 -31 -13 -67 -56 -55 -67 3 -4 -1 -14 -10 -24 -13 -15 -14 -24 -5 -50
15 -45 15 -67 -1 -51 -7 7 -14 16 -14 20 -5 26 -18 52 -25 52 -5 0 -9 7 -9 15
0 8 -7 15 -15 15 -21 0 -19 21 3 27 17 4 18 8 25 128 3 71 -4 105 -24 116 -17
8 -23 8 -29 -1 -4 -7 -13 -9 -19 -6 -16 10 -14 26 4 26 23 0 18 17 -7 23 -18
5 -19 8 -8 21 7 9 20 16 29 17 9 0 11 3 4 5 -7 3 -9 12 -6 21 3 8 1 18 -5 22
-6 4 5 21 28 43 36 33 50 38 50 16 0 -5 -4 -6 -10 -3 -5 3 -10 3 -10 -2 0 -13
114 -12 123 1 4 6 6 3 5 -9 -4 -53 1 -64 35 -67 27 -2 33 -8 35 -30 4 -33 -2
-34 -35 -8 -32 25 -58 25 -83 0 -47 -47 -29 -110 32 -110 40 0 60 12 92 58 22
32 35 41 69 46 23 4 52 9 65 13 31 7 28 -15 -3 -27 -14 -5 -25 -13 -25 -17 0
-5 -10 -13 -22 -18 -25 -11 -32 -42 -8 -36 8 2 31 3 52 3 26 1 35 4 31 14 -3
8 1 14 11 14 11 0 16 9 16 29 0 17 11 42 25 59 33 39 32 51 -5 58 -16 4 -35
13 -41 20 -6 8 -17 14 -24 14 -7 0 -15 7 -19 15 -4 12 0 14 22 8 25 -6 26 -5
13 11 -21 25 -2 38 38 26 34 -10 71 1 71 20 0 6 6 10 13 10 18 0 52 38 43 47
-4 5 -12 0 -18 -10 -9 -17 -11 -17 -34 -2 -14 9 -33 13 -43 10 -22 -7 -44 17
-35 39 7 19 45 31 74 23 36 -9 -2 31 -54 58 -26 13 -29 27 -12 50 14 20 15 19
24 -5 11 -28 43 -57 85 -80 38 -19 63 -4 59 37 -5 52 37 75 106 57 12 -4 22
-13 22 -20 0 -17 12 -18 28 -2 8 8 15 8 24 1 7 -6 39 -16 70 -22 57 -12 85
-31 73 -51 -4 -6 -20 -8 -42 -4 -26 5 -34 4 -29 -5 8 -12 -32 -31 -67 -31 -19
0 -20 1 -3 13 16 12 16 14 -3 31 -18 17 -21 17 -21 3 0 -11 -5 -14 -16 -10
-13 5 -13 7 -2 14 22 14 -7 10 -46 -6 -39 -16 -43 -24 -24 -43 9 -9 9 -12 -3
-12 -8 0 -19 4 -24 9 -16 14 -55 23 -55 12 0 -11 56 -41 79 -41 22 -1 61 -30
40 -30 -9 0 -21 -11 -27 -25 -10 -21 -9 -27 3 -31 8 -4 15 -17 15 -30 0 -27
27 -34 36 -9 4 8 9 15 13 15 4 0 29 21 57 48 39 37 168 116 193 117 4 1 19 4
34 8 39 10 23 29 -21 25 -30 -2 -37 1 -40 17 -2 11 -1 17 3 13 9 -9 65 19 65
32 0 5 18 14 39 21 32 9 40 17 45 42 4 18 2 33 -4 37 -6 4 -12 18 -13 31 -1
26 -28 53 -37 38 -3 -4 -6 9 -7 31 -1 22 -7 49 -14 61 -10 19 -8 25 7 36 17
13 15 14 -17 8 -24 -5 -39 -3 -44 5 -5 9 -1 10 13 6 11 -4 23 -2 27 4 3 5 18
11 33 11 24 2 25 2 4 6 -29 6 -24 26 8 33 16 4 24 13 25 29 l2 24 -121 -6
c-118 -5 -120 -5 -86 12 29 13 70 16 250 15 203 0 221 -2 314 -28 105 -29 136
-30 61 -2 -25 10 -43 22 -39 27 3 5 -5 19 -18 30 l-23 20 54 -6 c61 -7 208
-61 289 -106 58 -32 71 -27 19 8 -52 36 -295 138 -372 157 -112 28 -240 32
-375 11 -115 -18 -158 -16 -145 6 4 5 18 14 31 19 13 5 40 32 59 59 23 32 51
56 81 70 24 12 47 28 50 36 10 25 101 64 176 76 43 7 121 9 190 6 113 -6 117
-5 120 15 2 12 9 23 16 26 7 2 11 -2 10 -9 -2 -8 7 -15 20 -17 21 -3 23 -1 17
18 -5 16 -3 21 6 18 8 -3 21 4 29 15 13 15 33 21 91 24 138 9 254 5 324 -11
108 -26 113 -27 120 -16 4 6 21 -8 40 -31 18 -24 42 -44 52 -45 10 -2 38 -21
62 -43 23 -22 57 -42 75 -45 19 -4 61 -28 94 -54 55 -43 61 -52 72 -103 8 -35
24 -72 45 -97 18 -23 43 -68 55 -99 34 -88 44 -106 63 -111 9 -2 17 -8 17 -13
0 -5 18 -19 39 -31 46 -26 71 -64 86 -130 8 -38 13 -45 25 -38 12 8 13 14 2
42 -16 43 -27 248 -13 268 8 12 14 10 33 -13 13 -15 31 -27 40 -27 23 0 25 -5
37 -94 6 -44 15 -84 20 -90 21 -27 32 -93 36 -234 3 -84 10 -165 16 -180 10
-26 11 -26 25 -8 8 11 14 30 14 43 0 26 15 31 24 7 10 -26 7 -84 -10 -169 -22
-111 -33 -203 -27 -226 8 -30 23 -22 23 11 0 17 4 30 9 30 4 0 12 33 15 73 4
39 11 88 16 107 5 20 11 60 13 91 3 30 10 66 17 79 11 21 13 22 22 6 5 -9 7
-23 5 -31 -3 -7 1 -21 8 -32 13 -17 14 -16 15 8 0 30 28 48 42 27 11 -18 10
-84 -3 -173 -10 -63 -14 -75 -30 -75 -21 0 -26 29 -8 47 13 13 8 65 -7 70 -6
2 -14 -6 -17 -19 -13 -53 -48 -143 -59 -149 -6 -4 -11 -22 -10 -41 2 -44 -6
-68 -23 -68 -10 0 -13 -16 -14 -57 0 -56 -24 -126 -56 -163 -7 -8 -15 -37 -18
-65 -3 -27 -11 -65 -17 -83 -15 -40 -6 -55 11 -18 7 14 17 26 22 26 5 0 4 -6
-2 -14 -8 -10 -10 -30 -6 -59 6 -37 4 -45 -12 -51 -17 -7 -17 -8 0 -21 15 -11
16 -16 6 -32 -16 -27 -3 -97 17 -89 17 7 18 -6 2 -22 -8 -8 -9 -12 -1 -12 6 0
18 7 27 15 9 9 17 11 21 5 3 -5 1 -10 -4 -10 -6 0 -11 -5 -11 -11 0 -6 -11
-24 -25 -41 -14 -16 -25 -38 -25 -48 0 -21 -43 -52 -62 -45 -17 6 -84 -152
-93 -219 -5 -37 -15 -57 -43 -87 -20 -20 -50 -56 -66 -79 -32 -46 -38 -44 -57
25 l-11 40 -19 -24 c-11 -14 -19 -18 -19 -10 0 8 -11 -12 -24 -44 -14 -32 -32
-67 -42 -78 -17 -18 -17 -20 0 -32 17 -13 17 -14 1 -30 -9 -9 -20 -17 -24 -17
-5 0 -9 -41 -10 -90 -1 -105 -46 -266 -80 -287 -11 -7 -22 -27 -26 -45 -4 -18
-16 -46 -27 -61 -11 -15 -17 -34 -15 -42 3 -7 -1 -19 -8 -25 -8 -7 -13 -15
-11 -19 3 -4 -4 -26 -14 -49 -17 -38 -23 -42 -54 -42 -37 0 -59 -23 -55 -58 4
-32 -13 -92 -26 -92 -7 0 -16 -6 -19 -12 -3 -9 -12 -4 -28 13 -36 41 -62 45
-78 12 -7 -16 -15 -44 -16 -63 -2 -20 -12 -42 -24 -52 -14 -11 -20 -28 -20
-57 0 -28 -5 -44 -15 -47 -8 -4 -15 -16 -15 -28 0 -11 -9 -40 -20 -63 -15 -34
-24 -43 -44 -43 -23 0 -24 3 -23 45 2 33 7 47 20 51 20 6 24 54 3 54 -16 0
-31 -17 -38 -45 -3 -11 -9 -29 -14 -40 -7 -18 -6 -18 9 -6 15 12 17 11 17 -3
0 -9 -7 -16 -15 -16 -18 0 -20 -17 -2 -23 6 -2 -2 -6 -20 -9 -18 -2 -30 -1
-27 4 7 11 1 10 -32 -2 -31 -12 -64 -4 -64 15 0 18 -64 14 -99 -5 -20 -10 -25
-10 -33 4 -5 9 -16 16 -23 16 -20 0 -19 -10 3 -26 16 -12 16 -13 -4 -14 -22 0
-64 49 -64 75 0 8 -11 20 -25 27 -32 14 -44 4 -75 -66 -20 -44 -33 -58 -65
-73 -57 -26 -63 -27 -37 -8 25 18 30 37 7 29 -8 -4 -15 -1 -15 5 0 6 7 11 16
11 8 0 13 4 9 9 -3 5 -1 12 5 16 5 3 10 11 10 16 0 6 -17 -6 -37 -25 -21 -20
-43 -36 -49 -36 -16 0 -51 -44 -46 -58 5 -15 -14 -16 -31 -2 -55 47 -74 60
-83 60 -6 0 -23 9 -37 20 -29 23 -37 25 -37 8 0 -7 21 -26 45 -43 25 -16 45
-33 45 -37 0 -4 -9 -12 -21 -19 -13 -6 -19 -17 -16 -28 3 -13 -13 -8 -69 23
-40 23 -75 49 -77 58 -3 10 -12 20 -21 23 -53 17 -50 14 -31 35 10 11 16 21
14 23 -2 1 -13 9 -23 17 -18 14 -19 13 -13 -3 4 -10 -2 -33 -15 -55 -48 -86
-58 -112 -79 -212 -27 -128 -27 -136 5 -165 14 -13 26 -27 26 -31 0 -3 19 -24
43 -46 23 -22 34 -35 24 -28 -9 7 -20 10 -23 7 -9 -9 18 -89 49 -145 27 -48
30 -51 43 -35 12 16 13 14 14 -22 0 -29 -3 -36 -10 -25 -15 23 -12 -4 4 -42 8
-18 21 -55 29 -83 l14 -50 45 45 c25 25 47 52 50 60 3 8 9 12 13 7 13 -11 -8
-60 -30 -72 -68 -35 -137 -122 -169 -213 -12 -34 -12 -43 5 -78 10 -21 18 -46
19 -55 1 -43 90 -108 149 -109 13 0 58 20 100 44 42 24 92 48 111 55 124 40
168 51 205 51 l42 0 22 61 c13 33 25 59 27 56 3 -3 -2 -33 -10 -68 l-15 -64
44 -42 c24 -24 47 -52 50 -64 4 -12 34 -48 67 -80 46 -46 65 -58 80 -53 14 4
18 2 14 -5 -4 -6 6 -28 23 -48 17 -21 31 -43 31 -49 0 -15 29 -39 37 -31 3 4
0 13 -7 22 -7 9 -11 18 -8 20 3 3 11 -6 18 -20 17 -32 24 -31 50 5 18 25 25
28 36 19 11 -9 18 -9 29 1 25 21 18 -8 -33 -142 -17 -43 -26 -78 -22 -78 5 0
11 10 15 23 9 33 59 141 68 148 5 3 9 12 11 20 6 33 18 58 31 63 18 7 19 -5 3
-23 -11 -11 -9 -12 10 -6 25 7 29 -7 12 -50 -7 -17 -7 -24 0 -20 6 3 10 12 10
19 0 7 9 21 20 31 19 17 19 17 9 -16 -25 -80 -25 -76 -1 -56 12 11 18 26 15
35 -5 14 -3 15 8 5 17 -17 30 -17 28 0 -1 6 -1 21 0 32 1 18 2 19 12 2 5 -9
16 -17 24 -17 8 0 11 -8 8 -23 -4 -21 -4 -21 10 -4 14 16 15 16 20 -5 6 -22 7
-22 22 -3 15 19 15 19 9 -8 -5 -23 -4 -26 11 -20 15 5 17 2 11 -20 -5 -20 -3
-27 9 -27 8 0 15 5 15 11 0 5 5 7 10 4 8 -5 7 -11 0 -20 -7 -8 -9 -23 -5 -35
4 -13 2 -20 -8 -20 -10 0 -12 -9 -9 -32 5 -31 5 -32 15 -10 10 23 23 27 44 14
13 -8 -20 -130 -90 -327 -20 -55 -33 -102 -30 -105 3 -3 7 0 9 5 4 10 42 75
197 340 194 331 197 337 197 390 -1 28 -9 73 -19 100 -10 28 -41 113 -69 190
-82 230 -129 342 -207 498 -41 81 -72 147 -70 147 3 0 -2 8 -11 18 -9 9 -41
62 -71 117 -40 75 -53 108 -50 130 2 16 -2 40 -11 53 -13 20 -13 22 3 16 15
-6 16 -4 7 11 -5 10 -6 26 -2 34 5 9 23 52 41 96 18 44 38 87 46 96 7 8 18 30
24 47 7 20 20 34 33 38 13 3 30 21 40 40 9 20 22 34 29 31 6 -2 26 6 44 19 17
13 34 20 37 15 3 -5 15 -7 25 -4 16 4 27 -10 64 -83 25 -49 48 -105 52 -124 4
-19 18 -57 30 -85 13 -27 26 -68 30 -90 7 -42 80 -219 101 -245 7 -8 16 -27
19 -42 4 -16 12 -25 18 -21 6 4 8 0 4 -10 -4 -10 -2 -17 4 -17 6 0 9 -7 5 -15
-3 -8 -2 -15 3 -15 5 0 12 -12 16 -27 3 -16 13 -35 21 -44 7 -8 81 -156 164
-327 82 -172 162 -332 178 -355 44 -65 112 -193 112 -211 0 -27 -17 -18 -23
13 -4 16 -22 46 -42 66 -20 19 -41 49 -47 65 -5 17 -14 30 -19 30 -5 0 -5 -7
0 -17 5 -10 25 -52 45 -94 19 -42 41 -79 50 -82 9 -4 16 -11 16 -17 0 -6 -4
-8 -10 -5 -6 3 -7 -1 -4 -10 4 -9 -2 -25 -11 -35 -16 -18 -33 -20 -144 -22
-115 -1 -120 -2 -51 -8 94 -8 74 -12 -55 -10 -55 1 -101 5 -103 11 -2 5 -19 9
-37 9 -29 0 -39 7 -65 45 -17 25 -33 45 -35 45 -11 0 -4 -19 20 -54 l24 -36
-91 0 c-50 0 -89 -2 -86 -5 3 -3 32 -10 64 -15 l59 -9 -67 3 c-50 3 -68 0 -68
-9 0 -7 -6 -18 -14 -24 -8 -7 -52 -78 -97 -159 -95 -169 -209 -367 -229 -399
-8 -12 -21 -24 -28 -25 -12 -3 -112 -251 -112 -279 0 -5 143 -9 340 -9 187 0
340 2 340 6 0 3 -9 22 -19 42 -10 20 -24 52 -29 70 -10 30 -9 32 5 20 14 -11
15 -9 8 22 -7 30 -6 33 7 23 11 -10 17 -10 26 -1 6 6 13 10 15 7 7 -9 67 -169
67 -179 0 -7 139 -10 473 -8 l472 3 35 23 c19 13 67 45 106 70 38 26 119 80
178 120 59 39 112 72 118 72 6 0 8 7 4 15 -3 8 0 15 5 15 6 0 9 9 6 20 -4 17
-1 19 19 14 13 -3 24 -2 24 4 0 14 42 23 56 11 9 -7 27 -3 62 15 67 34 206
130 265 182 26 23 82 63 125 88 42 24 100 61 127 80 117 84 257 176 267 176 6
0 26 11 44 25 18 14 36 25 40 25 3 0 23 14 43 30 20 17 42 36 50 42 7 6 30 12
50 13 20 1 54 13 76 27 22 14 63 36 92 51 29 14 78 43 110 64 32 21 111 69
176 107 l117 69 0 6318 0 6319 -7000 0 -7000 0 0 -4889z m8565 1591 c-12 -58
-144 -387 -153 -385 -6 1 -8 -5 -6 -15 3 -9 -9 -57 -26 -107 -41 -118 -107
-340 -115 -388 -10 -50 -70 -163 -80 -147 -4 6 -2 17 4 23 6 6 11 19 11 28 0
9 7 22 15 29 8 7 15 26 15 42 0 16 6 31 13 34 8 3 14 19 15 37 2 31 49 192 92
310 15 43 18 62 10 77 -6 11 -11 49 -12 85 -1 36 -6 65 -10 65 -4 0 -8 -8 -9
-17 0 -12 -6 -7 -14 13 -13 28 -69 85 -108 109 -13 8 -14 13 -4 27 7 9 19 17
27 19 24 4 114 -13 128 -24 18 -14 31 6 24 39 -6 30 11 31 30 2 l15 -23 29 34
c16 19 32 39 37 45 5 8 10 7 16 -2 8 -14 14 -3 42 81 15 44 23 49 14 9z m-835
-233 c0 -5 -4 -9 -9 -9 -10 0 -237 -189 -261 -217 -8 -9 -28 -35 -44 -57 l-29
-39 -14 43 c-22 65 -21 68 95 194 28 32 52 53 52 46 0 -6 19 0 43 13 23 14 47
23 53 21 6 -3 23 2 37 9 28 15 77 12 77 -4z m353 -396 c-50 -53 -76 -64 -154
-66 -58 -1 -85 4 -127 22 -29 13 -50 26 -46 30 3 3 61 6 129 7 112 1 129 3
172 26 56 29 65 23 26 -19z m-527 -8 c21 -33 93 -75 136 -80 18 -3 42 -9 53
-14 35 -15 138 -29 200 -27 82 4 136 22 182 62 21 19 46 34 55 34 9 0 20 5 23
10 3 6 12 10 20 10 12 0 12 -6 1 -42 -22 -69 -66 -158 -79 -158 -7 0 -18 9
-25 20 -9 15 -23 20 -56 20 -75 0 -183 -28 -251 -65 -64 -34 -64 -34 -112 -20
-61 18 -123 71 -168 141 -38 59 -40 69 -25 108 12 33 25 33 46 1z m-2773 -386
c-13 -88 -12 -195 3 -274 6 -28 5 -29 -8 -11 -8 10 -17 15 -20 10 -6 -11 21
-127 32 -134 4 -3 13 -21 20 -42 13 -35 40 -43 40 -12 0 23 14 16 59 -30 41
-41 47 -66 17 -66 -28 0 -124 -50 -144 -74 -11 -14 -29 -26 -41 -26 -11 0 -40
-19 -64 -42 -77 -75 -93 -86 -57 -41 18 24 34 51 35 60 1 10 5 28 9 41 4 13 3
28 -3 36 -15 18 -6 23 28 18 29 -4 30 -5 14 -28 -23 -35 -4 -30 63 18 43 31
54 44 41 46 -10 2 -29 -3 -42 -12 -29 -19 -45 -20 -45 -3 0 6 15 19 33 28 39
19 39 26 3 164 -26 101 -26 108 -10 263 6 58 1 63 -27 30 -10 -13 -18 -18 -19
-11 0 7 12 24 26 40 14 15 21 29 15 31 -17 6 -13 27 16 92 37 79 46 55 26 -71z
m1744 -31 c-14 -53 82 -164 172 -198 29 -11 63 -27 73 -35 11 -7 27 -11 34 -8
8 3 14 -1 14 -11 0 -27 -26 -19 -163 49 -143 70 -244 137 -215 143 9 2 25 -1
36 -7 17 -9 18 -6 14 51 -5 59 -4 60 18 48 15 -8 20 -18 17 -32z m51 -220 c18
-22 35 -52 39 -67 7 -31 20 -41 53 -41 18 0 31 -9 43 -29 16 -28 16 -28 -10
-25 -14 1 -30 7 -36 13 -6 6 -17 11 -25 11 -26 0 0 -20 64 -50 70 -32 177 -64
168 -49 -7 13 20 11 51 -3 24 -11 44 -52 31 -65 -3 -4 -20 3 -36 16 -17 12
-35 19 -41 15 -6 -3 -18 1 -27 9 -9 8 -35 19 -57 23 -78 14 -330 144 -280 144
16 0 13 5 -15 29 -40 34 -37 45 8 32 30 -9 44 0 23 14 -7 4 -8 39 -2 63 3 9
21 -5 49 -40z m113 -277 c36 -40 40 -51 36 -83 -4 -28 0 -41 14 -54 22 -20 25
-40 7 -47 -27 -8 79 -138 140 -172 26 -14 26 -15 -18 -9 -25 4 -50 9 -56 13
-7 3 -40 48 -73 98 -46 69 -74 100 -107 119 -32 19 -42 30 -35 37 8 8 2 20
-19 42 -28 29 -30 35 -19 58 10 21 9 29 -5 42 -9 9 -16 20 -16 24 0 36 99 -9
151 -68z m-554 -12 c-4 -48 -2 -59 8 -55 10 3 13 -3 11 -22 -2 -16 -10 -28
-20 -30 -9 -2 -24 -18 -33 -35 -15 -29 -17 -30 -24 -12 -8 20 -8 20 -9 0 -2
-11 -2 -23 -1 -27 0 -4 -9 -10 -22 -14 -23 -7 -77 -59 -77 -75 0 -13 -14 -11
-28 3 -9 9 -12 5 -12 -20 0 -24 -4 -32 -18 -32 -10 0 -29 -11 -42 -25 -13 -14
-29 -25 -35 -25 -7 0 -20 -9 -31 -21 -40 -44 -144 -78 -144 -48 0 6 19 30 43
53 23 22 41 44 40 48 -3 8 12 12 35 9 6 -1 12 5 12 13 0 10 8 15 23 13 14 -1
22 3 22 13 0 8 -10 16 -22 18 -13 2 -23 8 -23 14 0 6 12 8 28 5 22 -5 28 -2
28 11 0 63 4 73 24 67 15 -5 18 -3 14 9 -4 11 0 16 15 16 17 0 21 6 21 30 0
23 4 30 20 30 11 0 20 -4 20 -10 0 -5 7 -10 16 -10 11 0 14 5 10 17 -4 9 -1
20 6 25 11 6 11 10 0 16 -11 7 -10 11 1 20 11 9 19 6 37 -13 18 -19 26 -22 37
-14 7 6 13 8 13 3 1 -17 29 41 30 59 0 20 17 57 27 57 3 0 3 -27 0 -61z m280
-81 c7 -6 10 -14 7 -19 -3 -5 2 -6 11 -3 9 4 23 0 33 -9 16 -14 80 -45 136
-67 24 -9 126 -152 126 -178 0 -7 -7 -20 -15 -28 -8 -8 -18 -21 -22 -28 -5 -7
-18 -17 -30 -20 -20 -6 -23 -4 -23 21 0 15 -4 23 -8 17 -4 -6 -18 -17 -31 -24
-23 -12 -23 -11 -8 10 13 19 13 25 -8 68 -33 68 -53 90 -63 74 -5 -7 -16 -10
-25 -6 -12 4 -17 1 -17 -12 0 -14 -8 -8 -27 19 -30 42 -35 44 -62 21 -15 -13
-17 -23 -11 -50 4 -19 4 -34 0 -34 -4 0 -11 16 -15 36 -4 24 -13 38 -26 41
-20 6 -27 23 -8 23 6 0 17 7 25 15 8 8 21 12 29 9 8 -4 15 -1 15 5 0 16 -49
14 -66 -3 -7 -8 -19 -16 -26 -18 -10 -4 -10 -8 1 -21 7 -10 14 -37 15 -61 1
-28 5 -41 11 -35 17 17 27 9 21 -16 -4 -14 -2 -25 2 -25 13 0 32 -103 22 -114
-4 -4 -14 2 -20 15 -7 13 -14 25 -15 27 -1 1 -14 -4 -29 -11 -23 -12 -24 -16
-11 -27 8 -7 15 -16 15 -21 0 -4 13 -30 29 -57 19 -32 28 -62 28 -91 0 -54 40
-135 62 -125 9 4 27 9 41 12 24 5 24 5 -8 -33 -17 -21 -29 -42 -26 -47 3 -5
-8 -13 -25 -19 -35 -12 -39 -24 -14 -38 10 -5 15 -12 11 -16 -7 -8 -48 30 -48
45 0 6 -7 13 -15 16 -8 4 -15 13 -15 21 0 21 -23 11 -35 -15 -5 -12 -13 -22
-17 -22 -13 0 -9 16 10 41 24 31 29 99 7 99 -8 0 -15 9 -15 20 0 13 -7 20 -20
20 -12 0 -30 9 -41 19 -18 17 -24 17 -47 6 -22 -12 -27 -12 -38 3 -11 14 -10
19 1 28 16 12 10 24 -12 24 -7 0 -13 -11 -13 -25 0 -19 -5 -25 -21 -25 -11 0
-18 4 -15 8 2 4 -4 8 -15 8 -10 0 -19 -4 -19 -8 0 -4 7 -8 15 -8 19 0 19 -5 0
-34 -13 -19 -13 -25 -2 -34 15 -13 31 -4 40 21 3 9 14 17 23 17 14 0 14 -4 -4
-34 l-20 -34 24 -23 c23 -21 24 -21 24 -3 0 16 2 17 10 4 14 -21 12 -28 -7
-32 -14 -3 -10 -11 21 -46 21 -23 33 -42 27 -42 -6 0 -11 5 -11 10 0 6 -5 10
-11 10 -12 0 -98 66 -111 85 -5 6 -23 -7 -47 -32 -41 -43 -89 -79 -96 -72 -2
3 21 30 52 62 56 57 56 57 37 79 -21 24 -118 88 -133 88 -9 0 -38 25 -112 97
-21 21 -43 33 -55 31 -13 -2 -20 3 -22 18 -2 17 4 23 29 28 18 3 40 12 48 19
9 7 36 22 61 32 105 45 267 174 290 233 5 12 16 22 25 22 8 0 15 4 15 9 0 5
10 9 23 9 12 0 45 3 72 6 28 3 41 3 30 0 -27 -8 -45 -24 -45 -39 0 -9 7 -11
23 -7 40 12 67 36 67 60 0 13 4 31 10 41 8 16 5 18 -18 14 -27 -4 -27 -4 -4 9
12 8 20 17 17 20 -11 11 69 7 82 -4z m1995 -48 c27 -27 53 -50 59 -50 6 0 9
-15 7 -32 l-3 -33 -76 -3 c-66 -2 -82 0 -112 20 -20 13 -36 28 -37 34 0 13 91
112 104 113 5 1 31 -21 58 -49z m-681 -108 c47 -59 78 -76 71 -40 -1 10 10 21
30 29 18 7 37 15 42 17 5 3 4 -1 -2 -9 -7 -8 -35 -48 -62 -89 -68 -101 -120
-160 -120 -137 0 9 4 25 10 35 21 38 37 131 26 151 -6 10 -21 36 -32 57 -12
22 -38 55 -58 74 -20 19 -36 39 -36 45 0 14 72 -59 131 -133z m-2482 -19 c-3
-20 2 -23 17 -9 20 20 38 21 31 1 -4 -8 -2 -17 3 -20 17 -10 12 -65 -5 -65
-18 0 -20 -16 -2 -23 9 -4 8 -8 -3 -16 -8 -6 -15 -14 -15 -18 0 -4 -16 -35
-35 -68 -18 -33 -33 -68 -31 -78 1 -11 -5 -20 -17 -24 -11 -2 -28 -21 -38 -40
-17 -31 -47 -53 -73 -53 -15 0 -18 35 -4 48 7 7 11 17 8 23 -10 16 -25 10 -35
-13 -9 -21 -9 -20 -7 7 1 19 8 30 17 30 11 0 15 13 16 48 2 53 14 79 14 30 0
-17 7 -36 16 -44 14 -11 15 -7 9 45 -9 71 1 126 21 126 9 0 14 7 12 18 -2 11
4 18 20 20 12 2 22 8 22 13 0 6 4 8 9 4 5 -3 13 -1 16 5 4 6 16 8 28 5 22 -6
22 -6 -1 14 -13 11 -21 25 -17 31 7 12 26 14 24 3z m2972 -9 c7 -9 23 -20 36
-25 13 -5 23 -15 23 -23 0 -15 52 -46 77 -46 17 0 17 -10 -4 -32 -9 -10 -13
-21 -9 -25 3 -4 15 3 26 15 24 25 48 28 56 8 3 -8 23 -17 45 -21 37 -6 52 -26
29 -40 -5 -3 -10 -14 -10 -25 0 -14 -5 -17 -22 -12 -14 3 -19 1 -14 -6 4 -7
-9 -15 -35 -22 -36 -10 -43 -9 -56 7 -13 16 -14 11 -10 -49 3 -41 1 -65 -5
-62 -11 7 -48 -33 -48 -53 0 -7 -3 -12 -7 -11 -5 2 -23 -12 -41 -30 -37 -37
-38 -37 -58 -17 -8 8 -21 12 -29 9 -17 -7 -21 -35 -4 -31 6 1 14 -4 16 -10 7
-19 -14 -16 -35 5 -10 10 -23 17 -28 15 -10 -3 -17 8 -50 77 -28 58 -36 81
-41 105 -2 11 -7 31 -12 45 -5 14 -12 45 -14 70 -3 25 -3 37 0 28 2 -10 11
-18 20 -18 9 0 13 6 10 15 -4 9 5 21 23 32 17 9 30 25 30 35 0 10 6 18 13 18
6 1 30 21 52 45 44 49 56 53 76 29z m933 -179 c8 -8 17 -37 21 -63 3 -26 12
-67 20 -92 8 -25 15 -55 15 -67 0 -38 11 -53 40 -53 24 0 29 -5 38 -42 13 -50
2 -69 -24 -44 -9 10 -27 24 -40 33 -13 8 -24 21 -24 29 0 7 -8 18 -18 23 -10
5 -24 29 -31 53 -7 24 -17 54 -21 68 -11 31 -20 157 -12 165 9 9 20 6 36 -10z
m-3500 -116 c13 -6 22 -17 20 -24 -3 -8 15 -16 55 -24 41 -8 61 -17 61 -27 0
-7 7 -14 15 -14 9 0 12 -6 9 -15 -4 -8 -1 -15 5 -15 10 0 65 -34 81 -50 3 -3
17 -11 33 -19 30 -16 36 -31 12 -31 -8 0 -15 -4 -15 -8 0 -9 -42 -8 -58 2 -7
4 -17 4 -22 1 -6 -4 -17 -2 -24 5 -8 6 -26 8 -42 4 -24 -6 -27 -5 -21 15 4 19
3 20 -9 10 -11 -9 -18 -9 -26 -1 -9 9 -15 9 -25 0 -7 -6 -17 -8 -20 -4 -4 4
-1 12 7 17 11 8 8 8 -10 3 -47 -14 -77 -12 -76 5 1 12 -11 17 -49 19 -61 4
-85 20 -59 39 10 7 23 28 29 45 7 24 22 39 55 55 25 12 46 22 47 22 1 1 13 -4
27 -10z m890 -585 c19 -7 21 -31 4 -37 -7 -2 -5 -3 5 -2 9 2 17 2 17 0 0 -2 3
-10 6 -19 7 -19 -25 -23 -42 -6 -6 6 -32 12 -58 13 -40 1 -51 -2 -67 -23 -10
-14 -19 -19 -19 -12 0 6 -7 12 -15 12 -10 0 -12 -6 -8 -17 6 -15 4 -16 -8 -6
-11 9 -19 9 -26 2 -7 -7 -15 -5 -27 6 -16 16 -18 15 -41 -9 -13 -14 -30 -26
-38 -26 -14 0 -97 38 -97 44 0 2 33 11 73 20 312 72 311 71 341 60z m1116
-511 c0 -198 -18 -499 -31 -524 -5 -9 -4 -31 1 -49 11 -38 4 -80 -14 -80 -11
0 -29 30 -111 185 -26 50 -59 108 -74 130 -40 59 -46 74 -17 40 14 -16 26 -33
26 -37 0 -5 11 -8 25 -8 22 0 25 -4 25 -37 0 -42 7 -57 31 -65 9 -4 20 -23 24
-44 3 -21 16 -56 28 -79 20 -39 21 -39 27 -15 7 28 2 50 -11 50 -5 0 -9 5 -9
11 0 5 4 8 9 4 12 -7 31 58 31 108 0 21 4 46 9 56 5 9 11 132 12 274 1 141 6
257 11 257 4 0 8 -80 8 -177z m-1739 -881 c-53 -272 -61 -327 -51 -362 12 -43
13 -40 -4 -40 -8 0 -16 6 -19 13 -3 8 -9 6 -20 -8 -8 -11 -13 -22 -10 -25 3
-3 8 1 10 8 7 18 23 15 23 -4 0 -13 3 -14 15 -4 20 16 27 10 72 -67 78 -134
162 -319 183 -401 18 -74 19 -89 8 -138 -7 -30 -15 -54 -18 -54 -6 1 -49 71
-81 133 -13 26 -37 60 -52 75 l-29 27 5 -33 c3 -19 12 -41 20 -50 8 -10 17
-25 20 -34 4 -10 11 -18 17 -18 29 0 67 -62 75 -123 4 -27 14 -51 21 -54 8 -3
14 -10 14 -15 0 -5 10 -18 23 -29 17 -15 19 -20 9 -27 -8 -5 -13 -12 -12 -16
1 -3 -4 -37 -10 -74 -15 -84 -9 -128 8 -54 7 30 17 62 22 73 14 25 40 24 47
-1 3 -11 9 -20 13 -20 4 0 28 -18 53 -40 50 -44 57 -47 57 -25 0 8 6 15 13 15
21 0 28 -12 16 -26 -7 -8 -7 -14 1 -19 5 -3 13 1 16 10 5 12 14 15 33 11 23
-6 24 -5 9 7 -29 23 -21 26 22 10 46 -18 47 -32 4 -46 -16 -5 -35 -15 -43 -21
-18 -14 -64 -87 -58 -92 3 -3 14 10 26 29 21 35 61 76 61 63 0 -4 -26 -51 -59
-104 -98 -162 -181 -342 -181 -391 0 -12 6 -9 20 9 17 22 20 23 25 8 6 -14 11
-15 26 -7 10 5 19 8 19 7 0 -2 -7 -24 -15 -50 -8 -27 -12 -48 -11 -48 2 0 16
24 31 53 44 86 128 208 141 203 30 -12 224 -143 257 -174 43 -42 47 -55 12
-46 -34 8 -34 -22 0 -38 28 -12 29 -17 46 -185 12 -120 13 -114 -36 -202 -17
-31 -13 -39 22 -35 153 17 172 17 235 -7 59 -22 218 -116 293 -174 19 -14 40
-25 47 -25 20 0 57 -37 69 -67 15 -39 11 -105 -11 -169 -14 -43 -18 -73 -13
-111 4 -39 2 -59 -10 -76 -14 -22 -14 -26 1 -41 16 -16 15 -19 -16 -44 -18
-15 -32 -35 -32 -44 0 -19 -47 -48 -77 -48 -23 0 -153 62 -153 74 0 4 -16 31
-36 58 -36 49 -37 49 -58 30 -11 -11 -26 -18 -33 -15 -6 2 -14 -1 -18 -6 -3
-6 -15 -11 -26 -11 -32 0 -59 -73 -50 -133 5 -27 4 -50 -1 -53 -5 -3 -1 -12 9
-20 17 -13 17 -14 -1 -7 -18 6 -19 2 -14 -54 3 -33 2 -79 -2 -103 -5 -26 -3
-62 4 -94 7 -29 9 -61 5 -72 -10 -25 -11 -119 -1 -128 4 -4 7 -11 8 -14 0 -4
4 -35 8 -70 6 -46 5 -67 -5 -78 -18 -22 -20 -54 -4 -89 8 -16 16 -41 19 -55 3
-14 17 -37 31 -52 14 -15 25 -36 25 -47 0 -11 6 -26 13 -33 6 -7 27 -31 46
-53 21 -24 44 -40 56 -40 12 0 29 -6 39 -14 21 -18 33 -7 15 15 -12 15 -11 16
17 10 32 -7 33 -6 59 91 4 12 20 32 36 44 17 12 34 32 39 45 11 28 29 30 70 9
17 -9 40 -13 53 -10 33 9 77 -11 77 -34 0 -10 7 -24 15 -31 8 -7 15 -20 15
-30 0 -10 6 -23 14 -29 17 -15 4 -66 -20 -75 -17 -6 -18 -39 -3 -68 8 -14 7
-28 -1 -49 -10 -23 -10 -39 0 -73 12 -42 11 -47 -20 -105 -23 -42 -53 -78 -99
-116 -68 -57 -70 -59 -102 -94 -11 -12 -33 -24 -50 -28 -20 -4 -34 -14 -40
-31 -9 -23 -12 -24 -65 -17 -67 8 -104 -10 -104 -51 0 -15 -13 -41 -30 -61
-16 -18 -30 -38 -30 -43 0 -5 -14 -17 -31 -25 -25 -14 -30 -21 -28 -48 4 -41
-14 -73 -51 -92 -36 -19 -62 -14 -214 37 -152 52 -212 80 -245 115 -15 15 -49
47 -76 71 -33 27 -44 42 -32 42 22 0 22 15 0 32 -10 7 -19 24 -21 38 -2 14
-12 32 -23 40 -12 8 -35 27 -51 43 -17 15 -34 27 -39 27 -5 0 -6 70 0 88 1 2
17 -9 36 -24 20 -15 38 -25 40 -22 3 3 0 19 -6 37 -7 20 -8 49 -3 79 8 46 11
63 13 90 1 7 16 27 34 45 17 17 33 43 35 57 5 44 29 71 58 64 16 -4 31 -1 43
10 10 9 38 17 64 18 42 2 46 5 53 33 4 16 9 73 11 125 2 52 5 115 6 140 1 25
6 48 11 52 11 7 13 18 24 103 5 43 11 60 22 60 18 0 38 85 39 165 1 64 -6 58
-45 -42 -14 -38 -30 -68 -34 -68 -13 0 -170 -265 -385 -649 -31 -57 -66 -111
-76 -119 -11 -9 -19 -22 -19 -29 0 -19 -69 -45 -120 -44 -25 0 -103 3 -175 6
-71 3 -172 8 -223 10 -74 2 -98 7 -115 22 -142 124 -187 167 -187 179 0 8 -7
17 -15 20 -8 4 -15 10 -15 16 0 5 -42 60 -92 122 -51 63 -118 146 -148 186
-30 40 -91 115 -135 168 -222 265 -423 539 -421 575 2 25 8 25 91 1 33 -9 80
-20 105 -23 25 -4 55 -13 68 -20 12 -6 37 -13 55 -14 45 -4 151 -70 266 -166
25 -21 56 -41 68 -45 11 -4 27 -13 33 -21 14 -17 35 -21 25 -5 -3 5 -60 55
-126 110 -65 56 -119 108 -119 116 0 8 -11 20 -25 26 -23 10 -43 44 -32 54 4
4 229 -156 247 -175 3 -4 32 -28 65 -56 33 -27 97 -83 143 -123 45 -40 91 -75
102 -77 11 -2 20 -2 20 -1 0 7 -130 197 -196 286 -39 52 -119 168 -178 257
-96 145 -126 186 -126 169 0 -3 12 -24 28 -48 15 -24 32 -50 37 -59 28 -45
231 -342 270 -396 29 -39 42 -64 35 -68 -7 -4 -14 1 -16 12 -3 11 -16 26 -29
34 -13 8 -50 40 -83 72 -33 31 -64 57 -69 57 -4 0 -22 14 -40 30 -18 17 -34
30 -37 30 -22 0 -202 183 -186 188 6 2 25 -8 41 -24 16 -15 31 -25 33 -23 5 4
-9 23 -64 87 -11 13 -20 27 -20 31 0 4 -13 20 -30 36 -16 16 -30 33 -30 39 0
6 5 5 12 -2 19 -19 33 -14 16 6 -27 31 -28 39 -6 37 12 -1 24 -7 26 -13 2 -7
7 -12 12 -12 9 0 -5 48 -27 95 -13 26 -9 24 32 -17 25 -27 49 -48 52 -48 8 0
-66 91 -102 125 -233 218 -290 269 -348 313 -76 58 -106 76 -114 69 -2 -3 5
-10 16 -17 12 -6 21 -16 21 -22 0 -6 -11 -1 -24 11 -14 13 -23 28 -21 35 3 6
-21 27 -52 45 -32 19 -64 40 -73 47 -24 20 -104 79 -117 87 -19 12 -43 -4 -43
-27 0 -12 -11 -44 -24 -72 l-24 -49 5 48 c5 39 3 47 -11 47 -19 0 -22 -16 -3
-23 8 -4 7 -6 -4 -6 -8 -1 -24 6 -35 14 -16 12 -17 16 -5 24 21 14 1 35 -49
51 -22 7 -40 16 -40 19 0 17 -71 80 -84 75 -14 -6 -34 32 -22 43 3 4 6 -1 6
-10 0 -9 5 -17 10 -17 13 0 13 13 -1 27 -8 8 -19 9 -37 2 -22 -9 -24 -8 -12 6
12 14 10 16 -12 10 -22 -6 -26 -2 -34 27 -7 25 -17 35 -42 43 -21 6 -31 14
-27 23 2 7 -2 24 -11 38 -10 14 -12 24 -5 24 22 0 -2 30 -42 50 -45 24 -77 49
-77 61 0 20 359 -149 405 -191 11 -9 34 -24 50 -33 17 -8 77 -54 135 -103 58
-48 143 -112 190 -143 86 -56 325 -244 436 -342 115 -102 147 -129 150 -126 2
2 -18 68 -45 148 -27 79 -59 187 -71 239 -23 99 -46 148 -36 75 5 -29 4 -35
-3 -20 -15 32 -13 -3 4 -70 22 -82 44 -249 29 -217 -3 6 -11 12 -19 12 -7 0
-19 13 -26 28 -30 62 -95 152 -109 152 -8 1 -33 24 -55 52 -22 28 -60 71 -85
97 -25 25 -96 102 -158 171 -62 69 -139 152 -172 185 -55 54 -78 87 -49 69 7
-4 30 -8 51 -10 37 -3 40 -2 34 19 -3 12 -6 67 -6 122 -1 112 -10 105 -30 -22
-8 -46 -17 -83 -22 -83 -4 0 -8 9 -8 21 0 16 -4 19 -20 14 -14 -4 -20 -2 -20
8 0 10 7 13 20 10 14 -4 20 0 20 12 0 13 -6 16 -25 11 -14 -4 -25 -2 -25 2 0
5 -11 7 -25 4 l-25 -4 20 -26 c48 -61 1 -26 -113 84 l-124 119 -94 30 c-93 30
-214 83 -193 84 6 1 31 -6 54 -14 52 -18 60 -19 60 -2 0 6 -20 25 -45 40 -25
16 -45 30 -45 32 0 1 28 -8 63 -20 34 -12 85 -25 114 -29 l52 -7 10 38 c5 21
12 58 16 83 9 61 43 201 50 208 3 3 5 -11 5 -31 0 -20 5 -39 10 -42 15 -9 12
-66 -5 -85 -8 -9 -22 -63 -31 -121 -9 -57 -21 -110 -27 -118 -21 -25 60 -64
87 -42 8 7 17 35 21 64 11 91 16 107 33 107 14 0 14 1 -1 13 -13 10 -15 19 -7
52 5 22 7 50 4 61 -3 12 -1 25 5 28 5 4 8 13 5 21 -3 7 -1 22 4 31 9 16 10 15
16 -4 10 -29 22 -28 50 5 14 16 28 23 35 19 9 -6 9 -11 0 -22 -17 -21 -6 -26
24 -11 20 10 23 17 15 25 -9 9 -9 12 -1 12 7 0 15 -4 18 -10 3 -5 19 -10 36
-10 16 0 29 -3 30 -7 0 -5 3 -17 6 -28 3 -11 8 -47 12 -80 l6 -60 12 65 c7 36
15 84 19 108 10 64 24 61 25 -5 l1 -58 14 55 c8 30 14 82 14 115 0 87 11 175
21 175 9 0 6 -100 -4 -117 -4 -5 -3 -30 1 -54 9 -51 27 -59 62 -29 16 14 27
17 35 10 9 -8 19 -3 34 17 16 22 23 25 30 14 12 -19 29 -6 41 32 7 23 9 -10 6
-126 -2 -86 0 -159 4 -162 3 -2 12 54 18 125 13 140 38 270 53 270 5 0 9 10 9
22 0 17 3 19 12 10 7 -7 12 -30 11 -52 -1 -22 0 -40 2 -40 3 0 12 26 21 58 40
141 52 171 65 151 7 -11 9 -10 9 3 0 12 11 19 36 24 33 6 36 9 32 35 -4 29 -4
29 20 13 32 -21 40 -10 18 27 l-18 31 26 -17 c21 -14 29 -15 41 -5 11 9 18 10
28 1 11 -8 16 -5 25 14 9 20 16 24 40 19 17 -4 32 -1 36 5 4 6 21 11 38 11 21
0 31 6 35 20 6 22 29 27 35 9 3 -8 15 -6 38 6 20 11 51 17 72 16 20 -1 47 4
60 12 13 8 42 17 66 20 36 4 45 2 61 -19 10 -13 26 -24 35 -24 8 0 21 -10 27
-22 10 -18 14 -19 17 -8 8 23 30 41 37 31 3 -6 12 -8 21 -4 21 8 158 178 184
228 22 44 55 69 81 63 10 -2 13 6 11 32 -2 19 -8 43 -13 52 -7 14 -6 18 6 18
8 0 15 -4 15 -10 0 -17 18 -11 25 9 3 10 15 21 27 24 21 6 21 7 5 25 -9 10
-17 26 -17 35 0 8 -12 30 -26 47 -43 50 -18 47 28 -3 23 -26 47 -47 54 -47 8
0 32 33 54 73 39 68 40 70 34 32 -3 -22 -10 -44 -15 -49 -5 -6 -9 -18 -9 -29
0 -16 2 -16 14 -5 31 32 75 150 77 211 0 12 3 16 6 9 3 -7 -4 -61 -16 -120z
m903 -116 l29 -12 -87 -88 c-47 -49 -89 -87 -92 -83 -3 3 6 18 20 33 24 26 35
87 12 64 -16 -16 -30 -12 -16 5 17 21 8 42 -10 24 -44 -42 -49 -38 -12 9 23
30 42 58 42 64 0 11 70 2 114 -16z m-2229 -280 c-2 -18 -11 -48 -20 -66 -9
-18 -23 -58 -31 -89 -16 -64 -33 -106 -39 -99 -3 3 3 29 13 59 11 30 22 68 25
85 l6 32 -52 -32 c-126 -75 -239 -168 -224 -183 4 -3 13 1 20 9 6 9 42 37 79
62 65 44 98 57 98 36 0 -5 -11 -10 -25 -10 -17 0 -45 -20 -91 -65 -37 -36 -69
-65 -72 -65 -3 0 -17 -10 -30 -22 l-25 -23 6 23 c3 12 3 22 1 22 -2 0 -29 -20
-60 -45 -30 -25 -59 -45 -64 -45 -6 0 -10 -7 -10 -15 0 -8 7 -15 15 -15 10 0
15 -9 14 -27 0 -26 -1 -26 -9 -7 -11 28 -30 34 -76 24 -43 -10 -58 -3 -30 14
10 6 39 27 65 46 25 19 58 42 73 50 34 19 169 135 317 272 64 59 119 108 122
108 3 0 5 -15 4 -34z m2161 -140 c6 -16 -36 -105 -73 -152 -16 -22 -38 -35
-70 -43 -25 -7 -48 -9 -51 -6 -8 8 60 144 71 142 5 -1 12 4 15 12 3 8 0 11 -7
7 -15 -10 -14 19 2 32 28 23 105 28 113 8z m4424 -1406 c-4 -16 -12 -35 -17
-43 -18 -32 -164 -197 -183 -207 -18 -10 -20 -8 -20 17 0 16 8 40 17 53 10 14
19 42 20 63 4 56 16 71 86 105 36 18 68 39 71 48 5 13 9 14 20 5 10 -9 12 -20
6 -41z m-6843 -1072 c72 -53 85 -63 149 -120 30 -26 72 -59 95 -74 22 -14 39
-27 37 -30 -3 -2 -37 7 -77 21 -40 13 -100 30 -134 36 -72 14 -120 35 -115 51
6 18 28 21 28 5 0 -15 26 -23 103 -32 20 -3 37 -1 37 3 0 14 -53 59 -78 67
-12 3 -20 10 -18 14 5 8 -42 59 -79 86 -11 8 -16 15 -12 15 4 0 33 -19 64 -42z
m-3409 -81 c-9 -7 -41 -30 -72 -52 -35 -25 -52 -43 -46 -49 6 -6 10 -18 10
-28 0 -20 11 -23 26 -8 16 16 17 -74 1 -113 -7 -17 -14 -58 -15 -89 -2 -46 1
-58 13 -58 26 0 16 -28 -22 -62 -21 -18 -71 -64 -111 -103 -101 -96 -106 -92
-103 88 3 149 -7 189 -62 252 -40 44 -52 81 -38 111 6 13 19 27 28 30 10 3 27
10 38 14 11 5 74 20 140 35 66 15 131 30 145 35 14 5 39 9 55 9 26 0 28 -1 13
-12z m3149 -1009 c36 -10 111 -97 154 -175 14 -26 30 -48 37 -51 6 -2 22 19
36 47 14 27 30 53 36 56 10 6 -75 -173 -169 -357 -31 -61 -29 -80 3 -25 10 17
43 81 73 140 30 60 57 107 59 104 5 -5 -61 -158 -98 -227 -51 -96 -82 -143
-86 -131 -2 7 -11 3 -21 -11 -19 -25 -151 -264 -151 -273 0 -3 7 -5 15 -5 31
0 14 -19 -22 -25 -21 -3 -48 -8 -59 -11 -14 -2 -24 2 -28 13 -6 14 -9 15 -16
4 -7 -12 -45 -14 -202 -12 -106 2 -215 5 -243 8 -27 2 -60 4 -72 4 -13 -1 -23
3 -23 7 0 4 34 47 75 95 113 131 286 391 371 557 61 121 94 189 95 197 1 18
33 42 63 49 17 3 38 12 46 19 31 25 53 26 127 3z m609 -1030 c-24 -33 -19 -45
5 -14 34 43 92 30 103 -24 4 -22 11 -30 23 -28 12 2 19 -7 24 -32 4 -19 3 -37
-2 -40 -10 -7 17 -106 56 -203 20 -50 30 -65 37 -55 6 8 7 0 3 -26 -5 -31 6
-77 64 -250 38 -116 79 -244 91 -283 12 -40 27 -76 34 -80 8 -5 16 -21 20 -38
6 -28 3 -32 -36 -53 -55 -28 -59 -28 -53 6 3 15 -4 52 -15 82 -11 31 -18 42
-15 25 2 -16 7 -46 10 -65 9 -56 1 -59 -95 -44 -47 8 -107 15 -134 15 -26 1
-63 7 -82 15 -18 8 -52 14 -74 14 -46 0 -48 5 -19 55 26 43 23 98 -13 240 -17
68 -27 90 -40 90 -18 0 -72 54 -63 63 3 3 14 -4 25 -16 25 -26 44 -29 37 -4
-14 45 -61 207 -86 297 -15 55 -31 111 -35 125 -14 44 13 8 33 -44 l18 -47 26
51 c15 28 22 48 17 45 -24 -15 -29 48 -9 111 11 35 73 99 107 109 12 3 22 11
22 16 0 5 7 9 16 9 14 0 14 -2 0 -22z m6338 -810 c-5 -7 -34 -53 -66 -102 -32
-48 -58 -94 -58 -102 0 -7 -8 -17 -17 -23 -17 -9 -17 -10 0 -17 10 -3 21 -4
24 0 3 3 12 1 18 -4 12 -10 85 7 125 29 9 5 30 12 47 15 28 6 31 10 21 25 -8
13 -8 23 0 37 9 14 12 15 13 4 4 -42 8 -57 18 -83 6 -16 11 -49 11 -74 0 -39
-2 -44 -15 -33 -8 7 -15 9 -15 4 0 -5 -4 -4 -8 2 -24 38 -182 57 -201 25 -6
-9 -11 -10 -15 -2 -12 19 -30 12 -43 -15 -11 -23 -10 -25 5 -19 12 4 14 3 6
-5 -6 -6 -18 -8 -27 -4 -18 7 -23 24 -7 24 6 0 10 5 10 11 0 6 -7 9 -15 5 -8
-3 -15 -3 -15 0 0 12 40 82 54 93 9 8 16 18 16 23 0 10 44 77 99 151 33 44 52
63 35 35z m-3844 -36 c58 -7 128 -18 155 -23 28 -6 78 -11 112 -10 45 0 65 -4
75 -16 9 -12 10 -15 0 -9 -15 9 -54 -2 -47 -14 8 -13 -25 -28 -46 -23 -11 3
-21 -1 -24 -9 -4 -10 -15 -13 -31 -10 -26 5 -54 -12 -54 -34 0 -8 9 -14 20
-14 11 0 20 -4 20 -9 0 -5 7 -8 16 -7 9 0 19 -5 21 -11 3 -8 -4 -13 -15 -13
-11 0 -22 -5 -24 -12 -3 -7 -23 -12 -46 -12 -25 -1 -42 -6 -42 -13 0 -6 -2
-18 -6 -26 -4 -11 7 -16 43 -21 92 -13 123 -13 123 -3 0 7 4 7 12 -1 7 -7 17
-8 30 -1 12 6 24 6 37 -1 11 -5 28 -10 39 -10 18 0 42 -36 42 -65 0 -18 -17
-20 -22 -3 -3 7 -13 3 -27 -11 -17 -17 -25 -20 -31 -11 -5 8 -16 9 -30 5 -13
-4 -20 -3 -17 2 3 5 -19 7 -54 5 -37 -3 -65 0 -72 7 -6 6 -25 11 -42 11 -16 0
-46 5 -65 11 -36 11 -119 18 -248 22 -39 1 -72 4 -72 7 0 3 -39 5 -88 6 -50 0
-97 6 -110 13 -18 9 -31 10 -58 1 -19 -6 -48 -9 -65 -5 l-31 7 23 12 c13 6 29
27 35 45 14 44 33 57 97 66 53 8 64 9 180 18 38 3 71 8 75 11 5 6 -8 7 -98 11
-25 1 -98 6 -163 10 -115 8 -166 2 -219 -26 -11 -5 -20 -5 -23 2 -5 7 -11 6
-20 -1 -8 -7 -23 -9 -34 -5 -10 3 -22 1 -26 -5 -4 -7 -11 -7 -18 -2 -27 20
-46 20 -78 -4 -38 -28 -77 -31 -119 -9 -45 23 -38 48 38 121 66 64 68 65 112
59 60 -7 397 -5 439 3 54 11 309 7 421 -6z m1301 -15 c32 -20 21 -33 -38 -46
-100 -21 -97 -20 -69 -42 13 -10 29 -19 36 -19 17 0 7 -21 -17 -37 -18 -12
-23 -12 -36 2 -14 14 -21 12 -66 -16 -28 -18 -51 -38 -51 -45 0 -18 -40 -44
-67 -44 -14 0 -23 -6 -23 -15 0 -10 -10 -15 -32 -15 -25 0 -29 -3 -18 -10 8
-5 25 -10 38 -10 13 0 22 -6 22 -15 0 -11 -11 -15 -39 -15 -33 0 -40 4 -51 29
-14 34 -46 44 -93 28 -18 -5 -38 -12 -45 -13 -9 -3 -11 -14 -6 -40 5 -26 3
-39 -7 -45 -25 -15 -35 -10 -70 38 -25 35 -35 43 -37 30 -4 -19 -27 -23 -38
-6 -3 6 -17 8 -32 4 -22 -5 -24 -4 -13 8 8 10 9 17 1 22 -5 3 -10 1 -10 -4 0
-17 -30 -13 -36 4 -4 9 -19 15 -36 15 -18 0 -39 10 -54 25 -29 29 -34 31 -34
10 0 -9 -9 -15 -21 -15 -18 0 -19 2 -9 15 10 13 9 15 -12 15 -13 0 -29 -5 -36
-12 -6 -6 -15 -8 -19 -4 -4 4 -1 11 6 15 9 6 3 12 -21 20 l-33 12 25 21 c14
11 24 24 23 28 -1 5 5 14 13 21 14 11 18 10 30 -6 12 -16 14 -16 14 -2 0 14
21 16 193 16 108 -1 207 4 226 10 42 13 55 6 40 -21 -14 -26 -5 -34 53 -52 41
-12 51 -12 75 1 47 24 57 53 19 53 -13 0 -26 5 -28 12 -3 7 -19 11 -41 10 -42
-3 -48 9 -13 27 18 10 29 10 45 2 14 -8 21 -8 21 -1 0 5 -7 10 -15 10 -8 0
-15 5 -15 10 0 6 -7 10 -15 10 -8 0 -15 8 -15 18 0 16 9 19 50 21 38 1 64 -6
110 -29 l61 -31 34 26 c58 45 126 53 176 22z m481 1 c4 -10 23 -10 89 -2 97
13 242 11 261 -2 13 -10 89 -11 104 -2 5 3 34 5 64 4 l54 -2 33 -64 c36 -74
40 -92 17 -83 -24 9 -36 -18 -16 -34 14 -10 1 -13 -78 -14 -52 -2 -102 -3
-110 -5 -8 -1 -30 -2 -49 -3 -27 -1 -32 -4 -29 -19 5 -17 -1 -19 -71 -17 -42
2 -84 -1 -93 -6 -10 -5 -59 -10 -110 -12 -91 -2 -93 -1 -96 22 -2 13 2 28 10
32 10 7 10 9 1 9 -7 0 -13 7 -13 15 0 8 6 15 13 15 9 0 13 -11 12 -30 -2 -39
6 -44 41 -25 16 8 23 15 17 15 -7 0 -13 7 -13 16 0 8 4 13 9 9 16 -10 22 12
10 39 -7 14 -21 28 -31 32 -11 3 -24 19 -30 35 -5 16 -16 29 -24 29 -19 0 -18
16 2 24 9 4 14 13 10 21 -3 8 -1 15 3 15 5 0 11 -6 13 -12z m-2907 -271 c36
-10 65 -28 65 -40 0 -7 -33 -9 -160 -7 -108 1 -138 9 -124 31 2 4 0 10 -6 14
-5 3 -10 11 -10 17 0 13 176 2 235 -15z"/>
<path d="M5779 6144 c-9 -12 -14 -46 -15 -103 -1 -79 -3 -90 -34 -139 -20 -31
-39 -51 -46 -48 -14 5 -29 -28 -20 -43 3 -5 -3 -44 -13 -87 -51 -211 -66 -421
-42 -578 5 -34 18 -118 27 -188 11 -76 22 -124 27 -119 6 6 0 62 -14 140 l-22
131 20 23 c77 83 135 310 149 583 4 71 9 125 10 119 2 -5 8 -35 14 -65 10 -51
13 -55 40 -57 34 -2 35 1 21 74 -6 26 -15 91 -21 143 -12 107 -36 205 -55 220
-9 7 -16 5 -26 -6z"/>
<path d="M4441 5390 c-6 -52 -18 -126 -26 -165 -14 -70 -15 -403 -1 -505 3
-25 8 -69 11 -99 7 -82 23 -163 61 -309 34 -132 84 -253 92 -220 2 9 -1 25 -7
36 -26 49 -110 453 -132 635 -14 116 -7 516 11 619 6 37 10 76 8 85 -2 10 -10
-25 -17 -77z"/>
<path d="M4224 4765 c-4 -11 -12 -23 -17 -26 -5 -4 -4 -15 3 -28 6 -12 8 -31
5 -41 -4 -14 -2 -20 9 -20 9 0 13 -6 10 -14 -3 -7 2 -21 11 -30 9 -9 14 -23
11 -31 -3 -8 -1 -15 4 -15 5 0 17 -16 25 -36 18 -45 18 -44 0 -44 -9 0 -15 9
-15 24 0 29 -19 44 -30 25 -6 -10 -12 -6 -21 14 -10 23 -39 39 -39 22 0 -15
54 -63 66 -58 8 3 14 0 14 -6 0 -6 -5 -11 -11 -11 -6 0 0 -15 15 -34 14 -19
26 -41 26 -49 0 -38 155 -165 176 -144 3 3 1 21 -4 39 -6 18 -18 79 -28 136
-9 56 -21 102 -26 102 -4 0 -8 6 -8 14 0 8 -7 16 -15 20 -8 3 -15 12 -15 20 0
9 -13 22 -29 31 -16 8 -36 22 -45 30 -13 13 -16 14 -16 2 0 -19 36 -50 49 -42
17 10 13 -11 -4 -25 -11 -9 -15 -9 -15 -1 0 6 -15 27 -34 46 -26 26 -31 35
-19 39 15 6 13 22 -12 81 -12 28 -13 28 -21 10z"/>
<path d="M5824 4199 c4 -13 11 -40 16 -59 12 -47 49 -145 97 -255 22 -49 48
-116 58 -149 30 -98 154 -336 181 -348 13 -6 24 -16 24 -21 0 -6 2 -8 5 -5 6
6 -60 151 -107 233 -19 34 -37 70 -40 80 -4 11 -43 101 -88 200 -44 99 -92
215 -106 257 -14 43 -30 81 -36 84 -8 5 -9 -1 -4 -17z"/>
<path d="M6559 2087 c-18 -14 -14 -73 15 -182 24 -91 88 -136 147 -105 10 6
19 17 19 24 0 14 41 66 52 66 3 0 4 -9 1 -20 -6 -23 4 -25 30 -6 18 14 17 15
-4 40 -12 14 -28 26 -35 26 -6 0 -15 12 -18 26 -6 22 -33 58 -88 116 -23 23
-54 23 -80 -2 -21 -19 -38 -19 -38 1 0 6 5 7 12 3 6 -4 8 -3 4 4 -3 5 0 13 6
15 7 3 9 6 3 6 -5 0 -17 -5 -26 -12z"/>
<path d="M9884 5742 c0 -10 24 -46 51 -80 51 -62 114 -175 205 -362 79 -163
104 -210 111 -210 4 0 10 -16 13 -35 4 -19 12 -37 17 -41 8 -4 9 4 4 25 -4 20
-3 31 5 31 16 0 2 115 -21 168 -20 46 -9 57 17 17 13 -20 18 -22 29 -11 17 16
8 106 -11 113 -8 3 -14 13 -14 23 0 11 -4 22 -10 25 -5 3 -10 1 -10 -5 0 -16
-26 -40 -35 -32 -4 4 -3 -3 4 -15 6 -13 16 -32 21 -43 8 -15 7 -20 -2 -20 -7
0 -25 26 -40 58 -57 123 -239 371 -292 397 -38 19 -44 19 -42 -3z"/>
<path d="M9453 5537 c-7 -11 -10 -9 82 -58 101 -54 212 -131 292 -203 33 -31
66 -56 71 -56 13 0 -10 79 -33 113 -11 17 -28 26 -53 29 -20 3 -39 1 -40 -4
-7 -16 -21 3 -15 20 5 13 3 14 -7 5 -9 -8 -17 -7 -31 5 -10 9 -19 22 -19 29 0
7 -9 17 -19 23 -11 5 -22 18 -26 28 -3 11 -23 24 -46 31 -54 16 -63 6 -13 -15
36 -15 97 -64 79 -64 -9 0 -63 30 -84 47 -9 7 -25 19 -36 27 -11 9 -14 16 -7
16 22 0 13 17 -15 28 -33 12 -72 11 -80 -1z"/>
<path d="M9103 4744 c-4 -11 -15 -28 -25 -38 -18 -19 -18 -19 -18 8 0 24 -3
26 -22 21 -13 -4 -35 -15 -50 -26 -15 -10 -37 -19 -49 -19 -34 0 -75 -36 -109
-98 -18 -31 -39 -64 -47 -73 -8 -9 -17 -49 -20 -89 -4 -52 -12 -79 -25 -92
-10 -10 -13 -18 -7 -18 12 0 8 -94 -6 -137 -5 -17 -3 -23 8 -23 12 0 26 35 31
82 1 3 15 23 31 43 36 44 54 82 55 113 0 12 9 30 21 40 11 9 30 25 41 35 12 9
25 17 30 17 4 0 15 15 24 33 17 36 59 68 116 88 33 11 42 11 73 -4 20 -9 42
-17 49 -17 7 0 21 -9 31 -20 24 -27 41 -25 84 7 20 15 44 26 53 25 12 -2 22 6
28 22 5 14 16 26 25 26 8 0 15 5 15 10 0 6 -7 10 -15 10 -8 0 -15 9 -15 20 0
14 -6 20 -17 18 -10 -2 -17 2 -16 8 3 13 -62 28 -78 19 -5 -4 -15 -2 -22 4 -7
5 -47 13 -90 17 -69 6 -77 5 -84 -12z"/>
<path d="M8715 2770 c-3 -5 -14 -10 -24 -10 -13 0 -25 -19 -44 -67 -14 -38
-29 -82 -32 -99 -3 -18 -15 -40 -25 -49 -39 -35 -79 -111 -95 -179 -14 -63
-14 -70 1 -87 8 -9 21 -37 28 -60 13 -43 14 -44 72 -56 32 -6 62 -8 65 -5 10
10 36 99 50 167 11 54 51 141 70 155 5 3 4 12 -1 20 -13 21 -12 74 4 149 12
60 12 67 -6 98 -19 32 -50 44 -63 23z"/>
<path d="M252 2558 c-42 -82 -74 -206 -92 -353 -8 -67 -10 -72 -54 -110 -41
-35 -63 -67 -36 -50 13 8 30 -37 30 -77 0 -40 21 -98 35 -98 6 0 21 -9 34 -21
12 -12 25 -18 28 -15 3 3 8 32 10 63 6 95 29 150 69 169 18 9 31 20 28 25 -3
5 0 9 5 9 6 0 11 -7 11 -16 0 -8 5 -12 11 -8 6 4 8 20 5 39 -4 20 -2 35 4 37
6 2 -8 40 -31 87 -46 94 -53 138 -33 196 17 50 17 93 1 123 l-13 23 -12 -23z"/>
<path d="M10775 1634 c16 -25 16 -27 -12 -62 -16 -21 -28 -46 -27 -57 6 -72
30 -185 39 -185 6 0 21 -10 34 -21 16 -15 26 -18 33 -11 7 7 -1 35 -27 91 -35
75 -37 82 -25 112 l14 32 13 -38 c15 -45 12 -41 40 -49 22 -7 22 -6 8 21 -8
15 -15 33 -15 40 0 19 -33 83 -42 83 -5 0 -8 6 -6 13 3 15 -23 57 -36 57 -4 0
-1 -12 9 -26z"/>
<path d="M165 1638 c-11 -6 -28 -19 -38 -29 -10 -11 -26 -19 -37 -19 -18 0
-33 -15 -36 -35 0 -5 -2 -15 -2 -21 -1 -6 -12 -10 -25 -10 l-22 1 -3 -617 c-1
-340 1 -618 5 -618 11 0 40 57 49 92 3 16 10 28 15 28 5 0 9 6 9 13 1 15 35
57 47 57 15 0 75 69 69 79 -4 5 6 11 21 13 21 2 27 8 25 22 -2 10 1 15 7 12 6
-4 28 11 51 34 22 22 48 40 58 40 14 0 14 2 3 9 -12 8 -12 12 2 25 8 9 22 16
30 16 8 0 22 9 32 20 10 11 33 25 51 32 18 6 30 16 27 22 -4 5 1 7 10 3 11 -4
17 -1 17 9 0 9 5 14 12 12 12 -4 42 17 79 56 11 11 19 17 19 13 0 -4 8 -3 18
2 13 7 22 7 30 -1 6 -6 16 -7 24 -2 20 13 100 13 128 0 24 -12 103 -12 166 -1
32 5 108 55 85 55 -9 0 -11 8 -7 28 4 17 3 22 -2 14 -7 -10 -21 -2 -57 32 -26
25 -42 46 -35 46 8 0 22 -7 32 -17 17 -15 18 -15 18 0 0 20 4 21 32 6 11 -6
22 -8 25 -5 8 8 -27 46 -42 46 -7 0 -27 18 -46 40 -19 22 -41 40 -50 40 -9 0
-20 7 -23 16 -5 12 -14 15 -34 11 -22 -5 -34 0 -56 24 -20 21 -34 28 -48 23
-10 -3 -25 0 -33 6 -8 6 -19 9 -25 5 -5 -3 -14 5 -19 18 -11 29 -34 40 -51 24
-10 -9 -11 -5 -8 19 2 17 -1 36 -6 42 -6 6 -27 32 -46 56 -19 25 -41 45 -47
45 -17 1 -17 18 -1 23 17 6 -51 84 -69 80 -7 -2 -13 2 -13 7 0 6 -7 8 -15 5
-12 -5 -13 -9 -4 -20 7 -8 9 -18 5 -21 -4 -4 -11 -2 -15 5 -4 7 -15 10 -25 6
-11 -4 -21 -1 -26 7 -5 7 -12 11 -15 7 -9 -9 16 -46 29 -44 6 2 8 1 4 -1 -5
-3 -8 -16 -8 -29 0 -14 -4 -22 -10 -19 -11 7 -13 -6 -4 -28 3 -9 13 -13 25
-10 10 3 19 1 19 -5 0 -13 -26 -23 -44 -16 -21 8 -32 -17 -13 -31 16 -11 24
-45 12 -45 -3 0 -16 7 -29 15 -16 11 -22 22 -19 35 4 14 0 20 -11 20 -18 0
-18 -32 -1 -59 5 -10 4 -16 -3 -19 -17 -5 -15 -22 2 -22 8 0 16 -6 19 -12 3
-9 -10 -13 -45 -14 -31 0 -53 -6 -59 -15 -7 -11 -9 -11 -9 4 0 10 8 17 20 17
14 0 22 11 31 42 7 30 8 43 0 46 -6 2 -8 16 -4 33 4 22 0 36 -16 53 -22 23
-20 56 3 56 6 0 0 6 -14 13 -21 11 -25 19 -22 50 2 31 -1 38 -25 51 -21 11
-34 12 -48 4z"/>
<path d="M9238 1247 c-43 -11 -78 -26 -78 -31 0 -6 -23 -21 -50 -33 -28 -12
-50 -26 -50 -31 0 -26 152 -42 214 -22 17 5 45 14 61 19 l30 9 -32 12 c-36 13
-40 22 -20 39 10 8 27 7 65 -3 56 -14 62 -12 62 16 0 19 -15 24 -25 8 -8 -13
-75 -13 -75 1 0 5 4 8 9 5 4 -3 17 2 27 10 18 15 18 15 -3 11 -13 -3 -23 -1
-23 4 0 13 -25 10 -112 -14z"/>
<path d="M3288 795 c-21 -35 -38 -75 -38 -89 0 -29 75 -96 109 -96 19 0 20 3
10 23 -7 12 -16 29 -20 38 -4 9 -9 55 -10 103 -2 47 -5 86 -8 86 -4 0 -23 -29
-43 -65z"/>
<path d="M13589 436 c-3 -3 -44 -7 -92 -9 -47 -1 -89 -6 -93 -10 -4 -4 -18 -7
-31 -7 -14 0 -21 -4 -18 -10 3 -5 1 -10 -4 -10 -6 0 -11 -6 -11 -14 0 -10 -9
-14 -26 -13 -31 2 -44 -19 -17 -26 10 -3 -2 -6 -27 -7 -25 -1 -38 -4 -30 -7 8
-3 19 -12 23 -20 5 -7 12 -11 17 -8 4 3 10 -2 14 -10 6 -17 -19 -21 -29 -5 -8
13 -35 13 -35 -1 0 -6 -10 -19 -22 -29 -21 -17 -21 -19 -5 -25 21 -9 23 -25 2
-25 -8 0 -15 -4 -15 -10 0 -5 8 -10 18 -10 14 0 15 -2 2 -10 -9 -6 -19 -5 -28
2 -16 14 -33 -7 -25 -29 3 -8 -3 -13 -18 -13 -19 0 -21 2 -9 10 20 13 4 13
-21 -1 -15 -8 -18 -14 -10 -23 13 -15 -31 -62 -48 -51 -7 3 -11 -2 -11 -14 0
-15 -5 -19 -16 -14 -14 5 -14 3 -2 -16 12 -21 18 -22 141 -20 110 3 130 6 141
21 7 10 30 25 51 34 21 8 55 33 76 55 20 21 42 39 47 39 5 0 16 7 23 16 8 9
30 27 50 40 20 12 43 38 52 57 9 19 35 52 57 74 22 23 40 45 40 51 0 6 6 12
12 14 20 7 -21 25 -73 32 -25 4 -47 4 -50 2z"/>
<path d="M880 368 c0 -4 -15 -8 -33 -8 -18 0 -37 -4 -42 -9 -10 -9 -77 -21
-125 -22 -14 0 -30 -5 -36 -10 -13 -10 -71 -1 -80 12 -3 5 -15 7 -27 4 -12 -2
-59 -6 -105 -9 -45 -2 -88 -8 -95 -14 -6 -5 -31 -13 -54 -17 -24 -4 -43 -11
-43 -16 0 -4 -7 -6 -15 -2 -24 9 -101 -25 -113 -50 -6 -12 -15 -37 -21 -55 -6
-18 -20 -46 -31 -62 -12 -17 -19 -30 -15 -30 3 0 -1 -10 -9 -22 -9 -12 -16
-30 -16 -40 0 -17 26 -18 474 -18 l475 0 7 22 c5 18 8 19 15 5 15 -26 58 -2
59 32 0 11 -4 10 -19 -3 -13 -12 -21 -14 -26 -6 -4 6 1 17 11 24 11 8 14 18 9
26 -6 10 -4 12 8 7 9 -3 18 1 22 11 6 16 7 16 19 -1 7 -9 16 -17 20 -17 11 0
6 23 -10 41 -13 14 -13 20 -2 38 7 12 16 21 20 21 18 0 6 31 -19 47 l-26 17
23 6 c13 3 25 11 27 17 3 9 -10 11 -46 6 -35 -4 -51 -2 -51 6 0 6 -12 11 -27
11 -20 0 -24 3 -16 11 8 8 6 16 -7 29 -18 18 -80 33 -80 18z"/>
</g>
</svg>
